<svg width="664" height="215" viewBox="0 0 664 215" fill="none" xmlns="http://www.w3.org/2000/svg">
<path d="M49.5703 90.4766H23.2031L23.0625 74.3047H44.4375C48.2812 74.3047 51.3516 73.8828 53.6484 73.0391C55.9453 72.1484 57.6094 70.8594 58.6406 69.1719C59.7188 67.4844 60.2578 65.375 60.2578 62.8438C60.2578 59.9375 59.7188 57.5937 58.6406 55.8125C57.5625 54.0313 55.8516 52.7422 53.5078 51.9453C51.2109 51.1016 48.2344 50.6797 44.5781 50.6797H32.4844V134H7.80469V31.625H44.5781C50.9062 31.625 56.5547 32.2109 61.5234 33.3828C66.4922 34.5078 70.7109 36.2422 74.1797 38.5859C77.6953 40.9297 80.3672 43.8828 82.1953 47.4453C84.0234 50.9609 84.9375 55.1094 84.9375 59.8906C84.9375 64.0625 84.0469 67.9766 82.2656 71.6328C80.4844 75.2891 77.5078 78.2656 73.3359 80.5625C69.2109 82.8125 63.5625 83.9844 56.3906 84.0781L49.5703 90.4766ZM48.5859 134H17.2266L25.6641 115.016H48.5859C51.9609 115.016 54.6562 114.5 56.6719 113.469C58.7344 112.391 60.2109 110.984 61.1016 109.25C62.0391 107.469 62.5078 105.5 62.5078 103.344C62.5078 100.719 62.0625 98.4453 61.1719 96.5234C60.3281 94.6016 58.9688 93.125 57.0938 92.0938C55.2188 91.0156 52.7109 90.4766 49.5703 90.4766H28.8281L28.9688 74.3047H53.7891L59.5547 80.7734C66.3984 80.4922 71.8125 81.4531 75.7969 83.6562C79.8281 85.8594 82.7109 88.7656 84.4453 92.375C86.1797 95.9844 87.0469 99.7578 87.0469 103.695C87.0469 110.398 85.5938 116 82.6875 120.5C79.8281 125 75.5391 128.375 69.8203 130.625C64.1016 132.875 57.0234 134 48.5859 134ZM124.664 26V134H100.898V26H124.664ZM136.336 96.7344V95.2578C136.336 89.6797 137.133 84.5469 138.727 79.8594C140.32 75.125 142.664 71.0234 145.758 67.5547C148.852 64.0859 152.672 61.3906 157.219 59.4688C161.766 57.5 167.016 56.5156 172.969 56.5156C178.969 56.5156 184.242 57.5 188.789 59.4688C193.383 61.3906 197.227 64.0859 200.32 67.5547C203.414 71.0234 205.758 75.125 207.352 79.8594C208.945 84.5469 209.742 89.6797 209.742 95.2578V96.7344C209.742 102.266 208.945 107.398 207.352 112.133C205.758 116.82 203.414 120.922 200.32 124.438C197.227 127.906 193.406 130.602 188.859 132.523C184.312 134.445 179.062 135.406 173.109 135.406C167.156 135.406 161.883 134.445 157.289 132.523C152.695 130.602 148.852 127.906 145.758 124.438C142.664 120.922 140.32 116.82 138.727 112.133C137.133 107.398 136.336 102.266 136.336 96.7344ZM160.031 95.2578V96.7344C160.031 99.5938 160.242 102.266 160.664 104.75C161.086 107.234 161.789 109.414 162.773 111.289C163.758 113.117 165.094 114.547 166.781 115.578C168.469 116.609 170.578 117.125 173.109 117.125C175.594 117.125 177.656 116.609 179.297 115.578C180.984 114.547 182.32 113.117 183.305 111.289C184.289 109.414 184.992 107.234 185.414 104.75C185.836 102.266 186.047 99.5938 186.047 96.7344V95.2578C186.047 92.4922 185.836 89.8906 185.414 87.4531C184.992 84.9688 184.289 82.7891 183.305 80.9141C182.32 78.9922 180.984 77.4922 179.297 76.4141C177.609 75.3359 175.5 74.7969 172.969 74.7969C170.484 74.7969 168.398 75.3359 166.711 76.4141C165.07 77.4922 163.758 78.9922 162.773 80.9141C161.789 82.7891 161.086 84.9688 160.664 87.4531C160.242 89.8906 160.031 92.4922 160.031 95.2578ZM268.102 57.9219H289.617V131.047C289.617 138.078 288 144.031 284.766 148.906C281.531 153.828 277.008 157.555 271.195 160.086C265.43 162.664 258.68 163.953 250.945 163.953C247.523 163.953 244.031 163.508 240.469 162.617C236.906 161.773 233.578 160.508 230.484 158.82C227.391 157.133 224.789 155.047 222.68 152.562L232.594 138.641C234.516 140.797 236.93 142.625 239.836 144.125C242.742 145.672 246.164 146.445 250.102 146.445C253.523 146.445 256.383 145.836 258.68 144.617C261.023 143.398 262.805 141.617 264.023 139.273C265.242 136.977 265.852 134.188 265.852 130.906V75.9219L268.102 57.9219ZM217.547 96.875V95.3984C217.547 89.6328 218.25 84.3828 219.656 79.6484C221.109 74.8672 223.172 70.7656 225.844 67.3438C228.562 63.875 231.844 61.2031 235.688 59.3281C239.531 57.4531 243.867 56.5156 248.695 56.5156C253.898 56.5156 258.164 57.5234 261.492 59.5391C264.867 61.5078 267.562 64.2734 269.578 67.8359C271.641 71.3984 273.234 75.5703 274.359 80.3516C275.531 85.0859 276.516 90.1953 277.312 95.6797V97.4375C276.516 102.594 275.414 107.469 274.008 112.062C272.648 116.609 270.867 120.641 268.664 124.156C266.461 127.672 263.695 130.438 260.367 132.453C257.086 134.422 253.148 135.406 248.555 135.406C243.773 135.406 239.461 134.445 235.617 132.523C231.82 130.602 228.562 127.906 225.844 124.438C223.172 120.969 221.109 116.891 219.656 112.203C218.25 107.516 217.547 102.406 217.547 96.875ZM241.242 95.3984V96.875C241.242 99.7344 241.5 102.383 242.016 104.82C242.578 107.258 243.422 109.414 244.547 111.289C245.672 113.117 247.055 114.547 248.695 115.578C250.383 116.609 252.352 117.125 254.602 117.125C258.023 117.125 260.789 116.398 262.898 114.945C265.008 113.492 266.531 111.43 267.469 108.758C268.406 106.086 268.805 102.945 268.664 99.3359V93.7812C268.758 90.6875 268.547 87.9688 268.031 85.625C267.516 83.2344 266.695 81.2422 265.57 79.6484C264.492 78.0547 263.039 76.8594 261.211 76.0625C259.43 75.2188 257.273 74.7969 254.742 74.7969C252.539 74.7969 250.594 75.3125 248.906 76.3438C247.219 77.375 245.812 78.8281 244.688 80.7031C243.562 82.5312 242.695 84.7109 242.086 87.2422C241.523 89.7266 241.242 92.4453 241.242 95.3984ZM345.234 99.2656H319.781V80.2109H345.234C348.703 80.2109 351.516 79.625 353.672 78.4531C355.828 77.2812 357.398 75.6641 358.383 73.6016C359.414 71.4922 359.93 69.125 359.93 66.5C359.93 63.6875 359.414 61.0859 358.383 58.6953C357.398 56.3047 355.828 54.3828 353.672 52.9297C351.516 51.4297 348.703 50.6797 345.234 50.6797H329.062V134H304.383V31.625H345.234C353.438 31.625 360.492 33.125 366.398 36.125C372.352 39.125 376.922 43.25 380.109 48.5C383.297 53.7031 384.891 59.6563 384.891 66.3594C384.891 72.9688 383.297 78.7344 380.109 83.6562C376.922 88.5781 372.352 92.4219 366.398 95.1875C360.492 97.9062 353.438 99.2656 345.234 99.2656ZM441.492 115.508V57.9219H465.258V134H443.039L441.492 115.508ZM443.742 100.039L449.93 99.8984C449.93 105.008 449.32 109.742 448.102 114.102C446.883 118.414 445.078 122.164 442.688 125.352C440.344 128.539 437.438 131.023 433.969 132.805C430.547 134.539 426.586 135.406 422.086 135.406C418.336 135.406 414.891 134.891 411.75 133.859C408.656 132.781 405.984 131.117 403.734 128.867C401.484 126.57 399.727 123.641 398.461 120.078C397.242 116.469 396.633 112.156 396.633 107.141V57.9219H420.328V107.281C420.328 108.969 420.539 110.422 420.961 111.641C421.383 112.859 421.992 113.891 422.789 114.734C423.586 115.531 424.57 116.141 425.742 116.562C426.961 116.938 428.344 117.125 429.891 117.125C433.453 117.125 436.242 116.375 438.258 114.875C440.273 113.375 441.68 111.336 442.477 108.758C443.32 106.18 443.742 103.273 443.742 100.039ZM503.367 26V134H479.602V26H503.367ZM557.859 112.625C557.859 111.312 557.414 110.188 556.523 109.25C555.68 108.266 554.18 107.375 552.023 106.578C549.867 105.734 546.844 104.891 542.953 104.047C539.25 103.25 535.758 102.195 532.477 100.883C529.242 99.5703 526.406 97.9766 523.969 96.1016C521.531 94.2266 519.609 92 518.203 89.4219C516.844 86.8438 516.164 83.8906 516.164 80.5625C516.164 77.3281 516.844 74.2812 518.203 71.4219C519.609 68.5156 521.648 65.9609 524.32 63.7578C527.039 61.5078 530.344 59.75 534.234 58.4844C538.125 57.1719 542.555 56.5156 547.523 56.5156C554.367 56.5156 560.273 57.5703 565.242 59.6797C570.211 61.7422 574.031 64.6484 576.703 68.3984C579.422 72.1016 580.781 76.3906 580.781 81.2656H557.086C557.086 79.3438 556.758 77.7031 556.102 76.3438C555.492 74.9844 554.484 73.9531 553.078 73.25C551.672 72.5 549.797 72.125 547.453 72.125C545.812 72.125 544.312 72.4297 542.953 73.0391C541.641 73.6484 540.586 74.4922 539.789 75.5703C538.992 76.6484 538.594 77.9141 538.594 79.3672C538.594 80.3984 538.828 81.3359 539.297 82.1797C539.812 82.9766 540.586 83.7266 541.617 84.4297C542.648 85.0859 543.961 85.6953 545.555 86.2578C547.148 86.7734 549.07 87.2422 551.32 87.6641C556.43 88.6016 561.211 89.9375 565.664 91.6719C570.117 93.4062 573.727 95.8672 576.492 99.0547C579.305 102.242 580.711 106.531 580.711 111.922C580.711 115.297 579.938 118.414 578.391 121.273C576.844 124.086 574.617 126.57 571.711 128.727C568.805 130.836 565.312 132.477 561.234 133.648C557.156 134.82 552.562 135.406 547.453 135.406C540.188 135.406 534.047 134.117 529.031 131.539C524.016 128.914 520.219 125.633 517.641 121.695C515.109 117.711 513.844 113.68 513.844 109.602H535.922C536.016 111.945 536.578 113.867 537.609 115.367C538.688 116.867 540.117 117.969 541.898 118.672C543.68 119.375 545.742 119.727 548.086 119.727C550.242 119.727 552.023 119.422 553.43 118.812C554.883 118.203 555.984 117.383 556.734 116.352C557.484 115.273 557.859 114.031 557.859 112.625ZM628.664 135.406C622.477 135.406 616.945 134.445 612.07 132.523C607.195 130.555 603.07 127.859 599.695 124.438C596.367 121.016 593.812 117.078 592.031 112.625C590.297 108.172 589.43 103.461 589.43 98.4922V95.8203C589.43 90.2422 590.203 85.0859 591.75 80.3516C593.297 75.5703 595.594 71.3984 598.641 67.8359C601.688 64.2734 605.508 61.5078 610.102 59.5391C614.695 57.5234 620.039 56.5156 626.133 56.5156C631.523 56.5156 636.352 57.3828 640.617 59.1172C644.883 60.8516 648.492 63.3359 651.445 66.5703C654.445 69.8047 656.719 73.7188 658.266 78.3125C659.859 82.9062 660.656 88.0625 660.656 93.7812V103.414H598.5V88.5781H637.523V86.75C637.57 84.2188 637.125 82.0625 636.188 80.2812C635.297 78.5 633.984 77.1406 632.25 76.2031C630.516 75.2656 628.406 74.7969 625.922 74.7969C623.344 74.7969 621.211 75.3594 619.523 76.4844C617.883 77.6094 616.594 79.1562 615.656 81.125C614.766 83.0469 614.133 85.2734 613.758 87.8047C613.383 90.3359 613.195 93.0078 613.195 95.8203V98.4922C613.195 101.305 613.57 103.859 614.32 106.156C615.117 108.453 616.242 110.422 617.695 112.062C619.195 113.656 620.977 114.898 623.039 115.789C625.148 116.68 627.539 117.125 630.211 117.125C633.445 117.125 636.633 116.516 639.773 115.297C642.914 114.078 645.609 112.062 647.859 109.25L658.617 122.047C657.07 124.25 654.867 126.383 652.008 128.445C649.195 130.508 645.82 132.195 641.883 133.508C637.945 134.773 633.539 135.406 628.664 135.406Z" fill="white"/>
<path d="M106.254 200.252L111.352 180.406H114.024L113.725 185.521L108.276 206H105.498L106.254 200.252ZM102.44 180.406L106.571 200.094L106.94 206H103.987L98.0629 180.406H102.44ZM119.807 200.041L123.885 180.406H128.28L122.356 206H119.403L119.807 200.041ZM115.061 180.406L120.106 200.305L120.844 206H118.067L112.705 185.521L112.424 180.406H115.061ZM138.911 179V206H134.692V179H138.911ZM138.173 195.787L136.802 195.77C136.813 194.457 136.995 193.244 137.346 192.131C137.71 191.018 138.214 190.051 138.858 189.23C139.514 188.398 140.3 187.76 141.214 187.314C142.128 186.857 143.141 186.629 144.255 186.629C145.192 186.629 146.036 186.758 146.786 187.016C147.548 187.273 148.204 187.689 148.755 188.264C149.305 188.826 149.721 189.564 150.003 190.479C150.296 191.381 150.442 192.482 150.442 193.783V206H146.188V193.748C146.188 192.834 146.054 192.107 145.784 191.568C145.526 191.029 145.145 190.643 144.641 190.408C144.138 190.162 143.522 190.039 142.796 190.039C142.034 190.039 141.36 190.191 140.774 190.496C140.2 190.801 139.72 191.217 139.333 191.744C138.946 192.271 138.653 192.881 138.454 193.572C138.266 194.264 138.173 195.002 138.173 195.787ZM166.716 206.352C165.31 206.352 164.038 206.123 162.902 205.666C161.777 205.197 160.816 204.547 160.019 203.715C159.234 202.883 158.63 201.904 158.208 200.779C157.786 199.654 157.575 198.441 157.575 197.141V196.438C157.575 194.949 157.792 193.602 158.226 192.395C158.659 191.188 159.263 190.156 160.036 189.301C160.81 188.434 161.724 187.771 162.779 187.314C163.833 186.857 164.976 186.629 166.206 186.629C167.566 186.629 168.755 186.857 169.775 187.314C170.794 187.771 171.638 188.416 172.306 189.248C172.986 190.068 173.489 191.047 173.818 192.184C174.157 193.32 174.327 194.574 174.327 195.945V197.756H159.632V194.715H170.144V194.381C170.12 193.619 169.968 192.904 169.687 192.236C169.417 191.568 169.001 191.029 168.439 190.619C167.876 190.209 167.126 190.004 166.189 190.004C165.486 190.004 164.859 190.156 164.308 190.461C163.769 190.754 163.318 191.182 162.954 191.744C162.591 192.307 162.31 192.986 162.111 193.783C161.923 194.568 161.829 195.453 161.829 196.438V197.141C161.829 197.973 161.941 198.746 162.163 199.461C162.398 200.164 162.738 200.779 163.183 201.307C163.628 201.834 164.167 202.25 164.8 202.555C165.433 202.848 166.154 202.994 166.962 202.994C167.982 202.994 168.89 202.789 169.687 202.379C170.484 201.969 171.175 201.389 171.761 200.639L173.993 202.801C173.583 203.398 173.05 203.973 172.394 204.523C171.738 205.062 170.935 205.502 169.986 205.842C169.048 206.182 167.958 206.352 166.716 206.352ZM185.486 190.602V206H181.25V186.98H185.293L185.486 190.602ZM191.304 186.857L191.269 190.795C191.011 190.748 190.73 190.713 190.425 190.689C190.132 190.666 189.839 190.654 189.546 190.654C188.82 190.654 188.181 190.76 187.63 190.971C187.08 191.17 186.617 191.463 186.242 191.85C185.879 192.225 185.597 192.682 185.398 193.221C185.199 193.76 185.082 194.363 185.046 195.031L184.08 195.102C184.08 193.906 184.197 192.799 184.431 191.779C184.666 190.76 185.017 189.863 185.486 189.09C185.966 188.316 186.564 187.713 187.279 187.279C188.005 186.846 188.843 186.629 189.793 186.629C190.05 186.629 190.326 186.652 190.619 186.699C190.923 186.746 191.152 186.799 191.304 186.857ZM205.592 206.352C204.186 206.352 202.914 206.123 201.777 205.666C200.652 205.197 199.691 204.547 198.895 203.715C198.109 202.883 197.506 201.904 197.084 200.779C196.662 199.654 196.451 198.441 196.451 197.141V196.438C196.451 194.949 196.668 193.602 197.102 192.395C197.535 191.188 198.139 190.156 198.912 189.301C199.686 188.434 200.6 187.771 201.654 187.314C202.709 186.857 203.852 186.629 205.082 186.629C206.441 186.629 207.631 186.857 208.65 187.314C209.67 187.771 210.514 188.416 211.182 189.248C211.861 190.068 212.365 191.047 212.693 192.184C213.033 193.32 213.203 194.574 213.203 195.945V197.756H198.508V194.715H209.02V194.381C208.996 193.619 208.844 192.904 208.563 192.236C208.293 191.568 207.877 191.029 207.314 190.619C206.752 190.209 206.002 190.004 205.064 190.004C204.361 190.004 203.734 190.156 203.184 190.461C202.645 190.754 202.193 191.182 201.83 191.744C201.467 192.307 201.186 192.986 200.986 193.783C200.799 194.568 200.705 195.453 200.705 196.438V197.141C200.705 197.973 200.816 198.746 201.039 199.461C201.273 200.164 201.613 200.779 202.059 201.307C202.504 201.834 203.043 202.25 203.676 202.555C204.309 202.848 205.029 202.994 205.838 202.994C206.857 202.994 207.766 202.789 208.563 202.379C209.359 201.969 210.051 201.389 210.637 200.639L212.869 202.801C212.459 203.398 211.926 203.973 211.27 204.523C210.613 205.062 209.811 205.502 208.861 205.842C207.924 206.182 206.834 206.352 205.592 206.352ZM237.841 201.781L242.235 186.98H244.942L244.204 191.41L239.774 206H237.348L237.841 201.781ZM235.257 186.98L238.684 201.852L238.966 206H236.259L231.108 186.98H235.257ZM249.055 201.676L252.378 186.98H256.509L251.376 206H248.669L249.055 201.676ZM245.399 186.98L249.741 201.605L250.286 206H247.86L243.378 191.393L242.639 186.98H245.399ZM262.183 196.701V196.297C262.183 194.926 262.382 193.654 262.78 192.482C263.179 191.299 263.753 190.273 264.503 189.406C265.265 188.527 266.191 187.848 267.28 187.367C268.382 186.875 269.624 186.629 271.007 186.629C272.402 186.629 273.644 186.875 274.734 187.367C275.835 187.848 276.767 188.527 277.529 189.406C278.29 190.273 278.87 191.299 279.269 192.482C279.667 193.654 279.866 194.926 279.866 196.297V196.701C279.866 198.072 279.667 199.344 279.269 200.516C278.87 201.688 278.29 202.713 277.529 203.592C276.767 204.459 275.841 205.139 274.751 205.631C273.661 206.111 272.425 206.352 271.042 206.352C269.648 206.352 268.4 206.111 267.298 205.631C266.208 205.139 265.282 204.459 264.521 203.592C263.759 202.713 263.179 201.688 262.78 200.516C262.382 199.344 262.183 198.072 262.183 196.701ZM266.419 196.297V196.701C266.419 197.557 266.507 198.365 266.683 199.127C266.859 199.889 267.134 200.557 267.509 201.131C267.884 201.705 268.364 202.156 268.95 202.484C269.536 202.812 270.234 202.977 271.042 202.977C271.827 202.977 272.507 202.812 273.081 202.484C273.667 202.156 274.148 201.705 274.523 201.131C274.898 200.557 275.173 199.889 275.349 199.127C275.536 198.365 275.63 197.557 275.63 196.701V196.297C275.63 195.453 275.536 194.656 275.349 193.906C275.173 193.145 274.892 192.471 274.505 191.885C274.13 191.299 273.65 190.842 273.064 190.514C272.489 190.174 271.804 190.004 271.007 190.004C270.21 190.004 269.519 190.174 268.933 190.514C268.359 190.842 267.884 191.299 267.509 191.885C267.134 192.471 266.859 193.145 266.683 193.906C266.507 194.656 266.419 195.453 266.419 196.297ZM291.271 190.602V206H287.035V186.98H291.078L291.271 190.602ZM297.089 186.857L297.054 190.795C296.796 190.748 296.515 190.713 296.211 190.689C295.918 190.666 295.625 190.654 295.332 190.654C294.605 190.654 293.966 190.76 293.416 190.971C292.865 191.17 292.402 191.463 292.027 191.85C291.664 192.225 291.382 192.682 291.183 193.221C290.984 193.76 290.867 194.363 290.832 195.031L289.865 195.102C289.865 193.906 289.982 192.799 290.216 191.779C290.451 190.76 290.802 189.863 291.271 189.09C291.752 188.316 292.349 187.713 293.064 187.279C293.791 186.846 294.629 186.629 295.578 186.629C295.836 186.629 296.111 186.652 296.404 186.699C296.709 186.746 296.937 186.799 297.089 186.857ZM314.594 202.062V179H318.848V206H314.998L314.594 202.062ZM302.219 196.701V196.332C302.219 194.891 302.389 193.578 302.729 192.395C303.068 191.199 303.561 190.174 304.205 189.318C304.85 188.451 305.635 187.789 306.561 187.332C307.486 186.863 308.529 186.629 309.689 186.629C310.838 186.629 311.846 186.852 312.713 187.297C313.58 187.742 314.318 188.381 314.928 189.213C315.537 190.033 316.023 191.018 316.387 192.166C316.75 193.303 317.008 194.568 317.16 195.963V197.141C317.008 198.5 316.75 199.742 316.387 200.867C316.023 201.992 315.537 202.965 314.928 203.785C314.318 204.605 313.574 205.238 312.695 205.684C311.828 206.129 310.814 206.352 309.654 206.352C308.506 206.352 307.469 206.111 306.543 205.631C305.629 205.15 304.85 204.477 304.205 203.609C303.561 202.742 303.068 201.723 302.729 200.551C302.389 199.367 302.219 198.084 302.219 196.701ZM306.455 196.332V196.701C306.455 197.568 306.531 198.377 306.684 199.127C306.848 199.877 307.1 200.539 307.439 201.113C307.779 201.676 308.219 202.121 308.758 202.449C309.309 202.766 309.965 202.924 310.727 202.924C311.688 202.924 312.479 202.713 313.1 202.291C313.721 201.869 314.207 201.301 314.559 200.586C314.922 199.859 315.168 199.051 315.297 198.16V194.979C315.227 194.287 315.08 193.643 314.857 193.045C314.646 192.447 314.359 191.926 313.996 191.48C313.633 191.023 313.182 190.672 312.643 190.426C312.115 190.168 311.488 190.039 310.762 190.039C309.988 190.039 309.332 190.203 308.793 190.531C308.254 190.859 307.809 191.311 307.457 191.885C307.117 192.459 306.865 193.127 306.701 193.889C306.537 194.65 306.455 195.465 306.455 196.332ZM337.547 200.85C337.547 200.428 337.442 200.047 337.231 199.707C337.02 199.355 336.616 199.039 336.018 198.758C335.432 198.477 334.565 198.219 333.416 197.984C332.409 197.762 331.483 197.498 330.639 197.193C329.807 196.877 329.092 196.496 328.495 196.051C327.897 195.605 327.434 195.078 327.106 194.469C326.778 193.859 326.614 193.156 326.614 192.359C326.614 191.586 326.784 190.854 327.123 190.162C327.463 189.471 327.95 188.861 328.582 188.334C329.215 187.807 329.983 187.391 330.885 187.086C331.799 186.781 332.819 186.629 333.944 186.629C335.538 186.629 336.903 186.898 338.039 187.438C339.188 187.965 340.067 188.686 340.676 189.6C341.286 190.502 341.59 191.521 341.59 192.658H337.354C337.354 192.154 337.225 191.686 336.967 191.252C336.721 190.807 336.346 190.449 335.842 190.18C335.338 189.898 334.705 189.758 333.944 189.758C333.217 189.758 332.614 189.875 332.133 190.109C331.664 190.332 331.313 190.625 331.079 190.988C330.856 191.352 330.745 191.75 330.745 192.184C330.745 192.5 330.803 192.787 330.92 193.045C331.049 193.291 331.26 193.52 331.553 193.73C331.846 193.93 332.245 194.117 332.748 194.293C333.264 194.469 333.909 194.639 334.682 194.803C336.135 195.107 337.383 195.5 338.426 195.98C339.481 196.449 340.289 197.059 340.852 197.809C341.414 198.547 341.696 199.484 341.696 200.621C341.696 201.465 341.514 202.238 341.151 202.941C340.799 203.633 340.284 204.236 339.604 204.752C338.924 205.256 338.11 205.648 337.161 205.93C336.223 206.211 335.168 206.352 333.996 206.352C332.274 206.352 330.815 206.047 329.62 205.438C328.424 204.816 327.516 204.025 326.895 203.064C326.286 202.092 325.981 201.084 325.981 200.041H330.077C330.123 200.826 330.34 201.453 330.727 201.922C331.125 202.379 331.618 202.713 332.204 202.924C332.801 203.123 333.416 203.223 334.049 203.223C334.811 203.223 335.45 203.123 335.965 202.924C336.481 202.713 336.873 202.432 337.143 202.08C337.413 201.717 337.547 201.307 337.547 200.85ZM369.339 202.977C370.03 202.977 370.652 202.842 371.202 202.572C371.765 202.291 372.216 201.904 372.556 201.412C372.907 200.92 373.101 200.352 373.136 199.707H377.126C377.103 200.938 376.739 202.057 376.036 203.064C375.333 204.072 374.402 204.875 373.241 205.473C372.081 206.059 370.798 206.352 369.392 206.352C367.939 206.352 366.673 206.105 365.595 205.613C364.517 205.109 363.62 204.418 362.905 203.539C362.191 202.66 361.652 201.646 361.288 200.498C360.937 199.35 360.761 198.119 360.761 196.807V196.191C360.761 194.879 360.937 193.648 361.288 192.5C361.652 191.34 362.191 190.32 362.905 189.441C363.62 188.562 364.517 187.877 365.595 187.385C366.673 186.881 367.933 186.629 369.374 186.629C370.898 186.629 372.234 186.934 373.382 187.543C374.53 188.141 375.433 188.979 376.089 190.057C376.757 191.123 377.103 192.365 377.126 193.783H373.136C373.101 193.08 372.925 192.447 372.609 191.885C372.304 191.311 371.87 190.854 371.308 190.514C370.757 190.174 370.095 190.004 369.322 190.004C368.466 190.004 367.757 190.18 367.195 190.531C366.632 190.871 366.193 191.34 365.876 191.938C365.56 192.523 365.331 193.186 365.191 193.924C365.062 194.65 364.997 195.406 364.997 196.191V196.807C364.997 197.592 365.062 198.354 365.191 199.092C365.32 199.83 365.542 200.492 365.859 201.078C366.187 201.652 366.632 202.115 367.195 202.467C367.757 202.807 368.472 202.977 369.339 202.977ZM383.17 196.701V196.297C383.17 194.926 383.369 193.654 383.767 192.482C384.166 191.299 384.74 190.273 385.49 189.406C386.252 188.527 387.177 187.848 388.267 187.367C389.369 186.875 390.611 186.629 391.994 186.629C393.388 186.629 394.63 186.875 395.72 187.367C396.822 187.848 397.754 188.527 398.515 189.406C399.277 190.273 399.857 191.299 400.255 192.482C400.654 193.654 400.853 194.926 400.853 196.297V196.701C400.853 198.072 400.654 199.344 400.255 200.516C399.857 201.688 399.277 202.713 398.515 203.592C397.754 204.459 396.828 205.139 395.738 205.631C394.648 206.111 393.412 206.352 392.029 206.352C390.634 206.352 389.386 206.111 388.285 205.631C387.195 205.139 386.269 204.459 385.507 203.592C384.746 202.713 384.166 201.688 383.767 200.516C383.369 199.344 383.17 198.072 383.17 196.701ZM387.406 196.297V196.701C387.406 197.557 387.494 198.365 387.67 199.127C387.845 199.889 388.121 200.557 388.496 201.131C388.871 201.705 389.351 202.156 389.937 202.484C390.523 202.812 391.22 202.977 392.029 202.977C392.814 202.977 393.494 202.812 394.068 202.484C394.654 202.156 395.134 201.705 395.509 201.131C395.884 200.557 396.16 199.889 396.336 199.127C396.523 198.365 396.617 197.557 396.617 196.701V196.297C396.617 195.453 396.523 194.656 396.336 193.906C396.16 193.145 395.879 192.471 395.492 191.885C395.117 191.299 394.636 190.842 394.05 190.514C393.476 190.174 392.791 190.004 391.994 190.004C391.197 190.004 390.505 190.174 389.92 190.514C389.345 190.842 388.871 191.299 388.496 191.885C388.121 192.471 387.845 193.145 387.67 193.906C387.494 194.656 387.406 195.453 387.406 196.297ZM412.24 190.848V206H408.004V186.98H411.994L412.24 190.848ZM411.555 195.787L410.113 195.77C410.113 194.457 410.277 193.244 410.605 192.131C410.934 191.018 411.414 190.051 412.047 189.23C412.68 188.398 413.465 187.76 414.402 187.314C415.352 186.857 416.447 186.629 417.689 186.629C418.557 186.629 419.348 186.758 420.062 187.016C420.789 187.262 421.416 187.654 421.943 188.193C422.482 188.732 422.893 189.424 423.174 190.268C423.467 191.111 423.613 192.131 423.613 193.326V206H419.377V193.695C419.377 192.77 419.236 192.043 418.955 191.516C418.686 190.988 418.293 190.613 417.777 190.391C417.273 190.156 416.67 190.039 415.967 190.039C415.17 190.039 414.49 190.191 413.928 190.496C413.377 190.801 412.926 191.217 412.574 191.744C412.223 192.271 411.965 192.881 411.801 193.572C411.637 194.264 411.555 195.002 411.555 195.787ZM423.35 194.662L421.363 195.102C421.363 193.953 421.521 192.869 421.838 191.85C422.166 190.818 422.641 189.916 423.262 189.143C423.895 188.357 424.674 187.742 425.6 187.297C426.525 186.852 427.586 186.629 428.781 186.629C429.754 186.629 430.621 186.764 431.383 187.033C432.156 187.291 432.812 187.701 433.352 188.264C433.891 188.826 434.301 189.559 434.582 190.461C434.863 191.352 435.004 192.43 435.004 193.695V206H430.75V193.678C430.75 192.717 430.609 191.973 430.328 191.445C430.059 190.918 429.672 190.555 429.168 190.355C428.664 190.145 428.061 190.039 427.357 190.039C426.701 190.039 426.121 190.162 425.617 190.408C425.125 190.643 424.709 190.977 424.369 191.41C424.029 191.832 423.771 192.318 423.596 192.869C423.432 193.42 423.35 194.018 423.35 194.662ZM451.348 206.352C449.942 206.352 448.67 206.123 447.534 205.666C446.409 205.197 445.448 204.547 444.651 203.715C443.866 202.883 443.262 201.904 442.84 200.779C442.418 199.654 442.207 198.441 442.207 197.141V196.438C442.207 194.949 442.424 193.602 442.858 192.395C443.291 191.188 443.895 190.156 444.668 189.301C445.442 188.434 446.356 187.771 447.411 187.314C448.465 186.857 449.608 186.629 450.838 186.629C452.198 186.629 453.387 186.857 454.407 187.314C455.426 187.771 456.27 188.416 456.938 189.248C457.618 190.068 458.121 191.047 458.45 192.184C458.789 193.32 458.959 194.574 458.959 195.945V197.756H444.264V194.715H454.776V194.381C454.752 193.619 454.6 192.904 454.319 192.236C454.049 191.568 453.633 191.029 453.071 190.619C452.508 190.209 451.758 190.004 450.821 190.004C450.118 190.004 449.491 190.156 448.94 190.461C448.401 190.754 447.95 191.182 447.586 191.744C447.223 192.307 446.942 192.986 446.743 193.783C446.555 194.568 446.461 195.453 446.461 196.438V197.141C446.461 197.973 446.573 198.746 446.795 199.461C447.03 200.164 447.37 200.779 447.815 201.307C448.26 201.834 448.799 202.25 449.432 202.555C450.065 202.848 450.786 202.994 451.594 202.994C452.614 202.994 453.522 202.789 454.319 202.379C455.116 201.969 455.807 201.389 456.393 200.639L458.625 202.801C458.215 203.398 457.682 203.973 457.026 204.523C456.37 205.062 455.567 205.502 454.618 205.842C453.68 206.182 452.59 206.352 451.348 206.352ZM487.148 186.98V190.074H476.425V186.98H487.148ZM479.519 182.322H483.755V200.744C483.755 201.33 483.837 201.781 484.001 202.098C484.177 202.402 484.417 202.607 484.722 202.713C485.027 202.818 485.384 202.871 485.794 202.871C486.087 202.871 486.368 202.854 486.638 202.818C486.907 202.783 487.124 202.748 487.288 202.713L487.306 205.947C486.954 206.053 486.544 206.146 486.075 206.229C485.618 206.311 485.091 206.352 484.493 206.352C483.521 206.352 482.659 206.182 481.909 205.842C481.159 205.49 480.573 204.922 480.152 204.137C479.73 203.352 479.519 202.309 479.519 201.008V182.322ZM492.787 196.701V196.297C492.787 194.926 492.986 193.654 493.384 192.482C493.783 191.299 494.357 190.273 495.107 189.406C495.869 188.527 496.795 187.848 497.884 187.367C498.986 186.875 500.228 186.629 501.611 186.629C503.005 186.629 504.248 186.875 505.337 187.367C506.439 187.848 507.371 188.527 508.132 189.406C508.894 190.273 509.474 191.299 509.873 192.482C510.271 193.654 510.47 194.926 510.47 196.297V196.701C510.47 198.072 510.271 199.344 509.873 200.516C509.474 201.688 508.894 202.713 508.132 203.592C507.371 204.459 506.445 205.139 505.355 205.631C504.265 206.111 503.029 206.352 501.646 206.352C500.252 206.352 499.004 206.111 497.902 205.631C496.812 205.139 495.886 204.459 495.125 203.592C494.363 202.713 493.783 201.688 493.384 200.516C492.986 199.344 492.787 198.072 492.787 196.701ZM497.023 196.297V196.701C497.023 197.557 497.111 198.365 497.287 199.127C497.462 199.889 497.738 200.557 498.113 201.131C498.488 201.705 498.968 202.156 499.554 202.484C500.14 202.812 500.837 202.977 501.646 202.977C502.431 202.977 503.111 202.812 503.685 202.484C504.271 202.156 504.752 201.705 505.127 201.131C505.502 200.557 505.777 199.889 505.953 199.127C506.14 198.365 506.234 197.557 506.234 196.701V196.297C506.234 195.453 506.14 194.656 505.953 193.906C505.777 193.145 505.496 192.471 505.109 191.885C504.734 191.299 504.254 190.842 503.668 190.514C503.093 190.174 502.408 190.004 501.611 190.004C500.814 190.004 500.123 190.174 499.537 190.514C498.962 190.842 498.488 191.299 498.113 191.885C497.738 192.471 497.462 193.145 497.287 193.906C497.111 194.656 497.023 195.453 497.023 196.297ZM534.721 179V206H530.467V179H534.721ZM547.497 186.98V206H543.243V186.98H547.497ZM542.962 181.988C542.962 181.344 543.173 180.811 543.595 180.389C544.028 179.955 544.626 179.738 545.388 179.738C546.138 179.738 546.729 179.955 547.163 180.389C547.596 180.811 547.813 181.344 547.813 181.988C547.813 182.621 547.596 183.148 547.163 183.57C546.729 183.992 546.138 184.203 545.388 184.203C544.626 184.203 544.028 183.992 543.595 183.57C543.173 183.148 542.962 182.621 542.962 181.988ZM561.468 206H557.232V185.152C557.232 183.734 557.495 182.545 558.023 181.584C558.562 180.611 559.329 179.879 560.325 179.387C561.322 178.883 562.499 178.631 563.859 178.631C564.28 178.631 564.697 178.66 565.107 178.719C565.517 178.766 565.915 178.842 566.302 178.947L566.197 182.217C565.962 182.158 565.704 182.117 565.423 182.094C565.154 182.07 564.861 182.059 564.544 182.059C563.9 182.059 563.343 182.182 562.874 182.428C562.417 182.662 562.066 183.008 561.82 183.465C561.585 183.922 561.468 184.484 561.468 185.152V206ZM565.388 186.98V190.074H554.314V186.98H565.388ZM580.027 206.352C578.621 206.352 577.349 206.123 576.212 205.666C575.087 205.197 574.127 204.547 573.33 203.715C572.545 202.883 571.941 201.904 571.519 200.779C571.097 199.654 570.886 198.441 570.886 197.141V196.438C570.886 194.949 571.103 193.602 571.537 192.395C571.97 191.188 572.574 190.156 573.347 189.301C574.121 188.434 575.035 187.771 576.089 187.314C577.144 186.857 578.287 186.629 579.517 186.629C580.877 186.629 582.066 186.857 583.086 187.314C584.105 187.771 584.949 188.416 585.617 189.248C586.296 190.068 586.8 191.047 587.129 192.184C587.468 193.32 587.638 194.574 587.638 195.945V197.756H572.943V194.715H583.455V194.381C583.431 193.619 583.279 192.904 582.998 192.236C582.728 191.568 582.312 191.029 581.75 190.619C581.187 190.209 580.437 190.004 579.5 190.004C578.796 190.004 578.17 190.156 577.619 190.461C577.08 190.754 576.629 191.182 576.265 191.744C575.902 192.307 575.621 192.986 575.421 193.783C575.234 194.568 575.14 195.453 575.14 196.438V197.141C575.14 197.973 575.252 198.746 575.474 199.461C575.709 200.164 576.048 200.779 576.494 201.307C576.939 201.834 577.478 202.25 578.111 202.555C578.744 202.848 579.464 202.994 580.273 202.994C581.293 202.994 582.201 202.789 582.998 202.379C583.795 201.969 584.486 201.389 585.072 200.639L587.304 202.801C586.894 203.398 586.361 203.973 585.705 204.523C585.048 205.062 584.246 205.502 583.296 205.842C582.359 206.182 581.269 206.352 580.027 206.352Z" fill="white"/>
</svg>
